<svg width="96" height="72" viewBox="0 0 96 72" fill="none" xmlns="http://www.w3.org/2000/svg">
  <defs>
    <linearGradient id="left" x1="18" y1="8" x2="43" y2="62" gradientUnits="userSpaceOnUse"><stop stop-color="#DCEAF2"/><stop offset=".45" stop-color="#7197AE"/><stop offset="1" stop-color="#294E68"/></linearGradient>
    <linearGradient id="right" x1="78" y1="8" x2="53" y2="62" gradientUnits="userSpaceOnUse"><stop stop-color="#DCEAF2"/><stop offset=".45" stop-color="#7197AE"/><stop offset="1" stop-color="#294E68"/></linearGradient>
    <linearGradient id="center" x1="48" y1="12" x2="48" y2="62" gradientUnits="userSpaceOnUse"><stop stop-color="#F3FAFC"/><stop offset="1" stop-color="#6C91A7"/></linearGradient>
  </defs>
  <path d="M11 13L25 8L44 50L37 65L22 43L11 13Z" fill="url(#left)" stroke="#18374D" stroke-width="2" stroke-linejoin="round"/>
  <path d="M85 13L71 8L52 50L59 65L74 43L85 13Z" fill="url(#right)" stroke="#18374D" stroke-width="2" stroke-linejoin="round"/>
  <path d="M34 12L48 19L62 12L56 57L48 65L40 57L34 12Z" fill="url(#center)" stroke="#18374D" stroke-width="2" stroke-linejoin="round"/>
  <path d="M24 17L38 48M72 17L58 48" stroke="#F3FAFC" stroke-opacity=".72" stroke-width="2" stroke-linecap="round"/>
</svg>
